{"title":"Iron Man 2013 R6-FANTA","uid":8455776,"size":2245764964,"categoryP":"video","categoryS":"movies","magnet":"?xt=urn:btih:413e93dfc8222357862d1c647880fcdf4158ff18&amp;dn=Iron+Man+2013+R6-FANTA&amp;tr=udp%3A%2F%2Ftracker.openbittorrent.com%3A80&amp;tr=udp%3A%2F%2Fopen.demonii.com%3A1337&amp;tr=udp%3A%2F%2Ftracker.coppersurfer.tk%3A6969&amp;tr=udp%3A%2F%2Fexodus.desync.com%3A6969","seeders":3,"leechers":0,"uploader":"Gh0stNet","files":6,"time":1368104498,"description":"Format                                   : AVI\nFormat/Info                              : Audio Video Interleave\nFormat profile                           : OpenDML\nFormat settings                          : rec\nFile size                                : 2.05 GiB\nDuration                                 : 2h 13mn\nOverall bit rate                         : 2 199 Kbps\nWriting application                      : AVI-Mux GUI 1.17.8.3, Feb 16 201019:42:50\n\nVideo\nID                                       : 0\nFormat                                   : MPEG-4 Visual\nFormat profile                           : Advanced Simple@L5\nFormat settings, BVOP                    : 2\nFormat settings, QPel                    : No\nFormat settings, GMC                     : No warppoints\nFormat settings, Matrix                  : Default (MPEG)\nMuxing mode                              : Packed bitstream\nCodec ID                                 : XVID\nCodec ID/Hint                            : XviD\nDuration                                 : 2h 13mn\nBit rate                                 : 2 000 Kbps\nWidth                                    : 720 pixels\nHeight                                   : 304 pixels\nDisplay aspect ratio                     : 2.35:1\nFrame rate                               : 29.970 fps\nColor space                              : YUV\nChroma subsampling                       : 4:2:0\nBit depth                                : 8 bits\nScan type                                : Progressive\nCompression mode                         : Lossy\nBits/(Pixel*Frame)                       : 0.305\nStream size                              : 1.86 GiB (91%)\nWriting library                          : XviD 73\n\nAudio\nID                                       : 1\nFormat                                   : AC-3\nFormat/Info                              : Audio Coding 3\nMode extension                           : CM (complete main)\nFormat settings, Endianness              : Big\nCodec ID                                 : 2000\nDuration                                 : 2h 13mn\nBit rate mode                            : Constant\nBit rate                                 : 192 Kbps\nChannel(s)                               : 2 channels\nChannel positions                        : Front: L R\nSampling rate                            : 48.0 KHz\nBit depth                                : 16 bits\nCompression mode                         : Lossy\nStream size                              : 183 MiB (9%)\nAlignment                                : Aligned on interleaves\nInterleave, duration                     : 64 ms (1.92 video frames)\nInterleave, preload duration             : 192 ms\nTitle                                    : Iron Man 2013 CAM FULL-AUDIO\n\nNOTES:\n\nMost is in CAM english audio and rest is in some other foriegn language\n\nScreens:\n &lt;a href=&quot;\nhttp://i.imgur.com/T8VBZSo.png&quot; rel=&quot;nofollow&quot; target=&quot;_NEW&quot;&gt;\nhttp://i.imgur.com/T8VBZSo.png&lt;/a&gt; &lt;a href=&quot;\nhttp://i.imgur.com/W56igLA.png&quot; rel=&quot;nofollow&quot; target=&quot;_NEW&quot;&gt;\nhttp://i.imgur.com/W56igLA.png&lt;/a&gt; &lt;a href=&quot;\nhttp://i.imgur.com/f3iMdYu.png&quot; rel=&quot;nofollow&quot; target=&quot;_NEW&quot;&gt;\nhttp://i.imgur.com/f3iMdYu.png&lt;/a&gt; &lt;a href=&quot;\nhttp://i.imgur.com/czYDF6N.png&quot; rel=&quot;nofollow&quot; target=&quot;_NEW&quot;&gt;\nhttp://i.imgur.com/czYDF6N.png&lt;/a&gt;\n","torrent":{"xt":"urn:btih:413e93dfc8222357862d1c647880fcdf4158ff18","amp;dn":"Iron+Man+2013+R6-FANTA","amp;tr":["udp%3A%2F%2Ftracker.openbittorrent.com%3A80","udp%3A%2F%2Fopen.demonii.com%3A1337","udp%3A%2F%2Ftracker.coppersurfer.tk%3A6969","udp%3A%2F%2Fexodus.desync.com%3A6969"],"infoHash":"413e93dfc8222357862d1c647880fcdf4158ff18","infoHashBuffer":{"type":"Buffer","data":[65,62,147,223,200,34,35,87,134,45,28,100,120,128,252,223,65,88,255,24]},"announce":[],"urlList":[]}}